<?xml version="1.0" standalone="no"?>
<!DOCTYPE svg PUBLIC "-//W3C//DTD SVG 20010904//EN"
 "http://www.w3.org/TR/2001/REC-SVG-20010904/DTD/svg10.dtd">
<svg version="1.0" xmlns="http://www.w3.org/2000/svg"
 width="384.000000pt" height="384.000000pt" viewBox="0 0 384.000000 384.000000"
 preserveAspectRatio="xMidYMid meet">
<metadata>
Created by potrace 1.11, written by Peter Selinger 2001-2013
</metadata>
<g transform="translate(0.000000,384.000000) scale(0.100000,-0.100000)"
fill="#000000" stroke="none">
<path d="M890 3600 l0 -80 -80 0 -80 0 0 -160 0 -160 -80 0 -80 0 0 -80 0 -80
-80 0 -80 0 0 -80 0 -80 -80 0 -80 0 0 -720 0 -720 80 0 80 0 0 -320 0 -320
80 0 80 0 0 -240 0 -240 80 0 80 0 0 -80 0 -80 80 0 80 0 0 80 0 80 160 0 160
0 0 -80 0 -80 160 0 160 0 0 -80 0 -80 80 0 80 0 0 80 0 80 240 0 240 0 0 -80
0 -80 80 0 80 0 0 80 0 80 160 0 160 0 0 80 0 80 160 0 160 0 0 -80 0 -80 80
0 80 0 0 80 0 80 80 0 80 0 0 400 0 400 80 0 80 0 0 240 0 240 80 0 80 0 0
480 0 480 -80 0 -80 0 0 80 0 80 80 0 80 0 0 80 0 80 -80 0 -80 0 0 80 0 80
-80 0 -80 0 0 80 0 80 -80 0 -80 0 0 160 0 160 -80 0 -80 0 0 80 0 80 -1040 0
-1040 0 0 -80z m2080 -480 l0 -80 160 0 160 0 0 -80 0 -80 80 0 80 0 0 -80 0
-80 -80 0 -80 0 0 -80 0 -80 80 0 80 0 0 -480 0 -480 -80 0 -80 0 0 -240 0
-240 -80 0 -80 0 0 -400 0 -400 -80 0 -80 0 0 480 0 480 -80 0 -80 0 0 -160 0
-160 -80 0 -80 0 0 -160 0 -160 80 0 80 0 0 -80 0 -80 -80 0 -80 0 0 80 0 80
-80 0 -80 0 0 160 0 160 80 0 80 0 0 80 0 80 -80 0 -80 0 0 80 0 80 160 0 160
0 0 80 0 80 -320 0 -320 0 0 -160 0 -160 80 0 80 0 0 -160 0 -160 -400 0 -400
0 0 160 0 160 80 0 80 0 0 160 0 160 -240 0 -240 0 0 -80 0 -80 80 0 80 0 0
-80 0 -80 -80 0 -80 0 0 -80 0 -80 80 0 80 0 0 -160 0 -160 -80 0 -80 0 0 -80
0 -80 -80 0 -80 0 0 80 0 80 80 0 80 0 0 160 0 160 -160 0 -160 0 0 160 0 160
80 0 80 0 0 80 0 80 -80 0 -80 0 0 80 0 80 -80 0 -80 0 0 -400 0 -400 80 0 80
0 0 -240 0 -240 -80 0 -80 0 0 240 0 240 -80 0 -80 0 0 320 0 320 -80 0 -80 0
0 720 0 720 80 0 80 0 0 80 0 80 160 0 160 0 0 80 0 80 1040 0 1040 0 0 -80z
m-640 -2720 l0 -240 -80 0 -80 0 0 80 0 80 -240 0 -240 0 0 -80 0 -80 -80 0
-80 0 0 240 0 240 400 0 400 0 0 -240z"/>
<path d="M890 2960 l0 -80 1040 0 1040 0 0 80 0 80 -1040 0 -1040 0 0 -80z"/>
<path d="M570 2800 l0 -80 80 0 80 0 0 80 0 80 -80 0 -80 0 0 -80z"/>
<path d="M3130 2800 l0 -80 80 0 80 0 0 80 0 80 -80 0 -80 0 0 -80z"/>
<path d="M570 2080 l0 -480 80 0 80 0 0 480 0 480 -80 0 -80 0 0 -480z"/>
<path d="M3130 2080 l0 -480 -80 0 -80 0 0 -160 0 -160 80 0 80 0 0 160 0 160
80 0 80 0 0 480 0 480 -80 0 -80 0 0 -480z"/>
<path d="M1210 2320 l0 -80 80 0 80 0 0 -80 0 -80 160 0 160 0 0 160 0 160
-240 0 -240 0 0 -80z"/>
<path d="M2170 2320 l0 -80 80 0 80 0 0 -80 0 -80 160 0 160 0 0 160 0 160
-240 0 -240 0 0 -80z"/>
<path d="M1050 1200 l0 -80 80 0 80 0 0 80 0 80 -80 0 -80 0 0 -80z"/>
<path d="M1850 1200 l0 -80 -80 0 -80 0 0 -80 0 -80 80 0 80 0 0 80 0 80 80 0
80 0 0 -80 0 -80 80 0 80 0 0 80 0 80 -80 0 -80 0 0 80 0 80 -80 0 -80 0 0
-80z"/>
</g>
</svg>
